<svg width="19" height="17" viewBox="0 0 19 17" fill="none" xmlns="http://www.w3.org/2000/svg">
<path d="M18.2083 1.37503C17.4502 1.90978 16.6108 2.31878 15.7225 2.58628C15.2457 2.03806 14.612 1.64949 13.9072 1.47313C13.2024 1.29678 12.4604 1.34114 11.7816 1.60022C11.1028 1.8593 10.52 2.32059 10.1119 2.92172C9.70386 3.52284 9.49025 4.23479 9.49999 4.96128V5.75294C8.10874 5.78902 6.73016 5.48046 5.48704 4.85475C4.24391 4.22905 3.17482 3.30561 2.37499 2.16669C2.37499 2.16669 -0.791677 9.29169 6.33332 12.4584C4.70291 13.5651 2.76066 14.12 0.791656 14.0417C7.91666 18 16.625 14.0417 16.625 4.93753C16.6243 4.71701 16.6031 4.49704 16.5617 4.28044C17.3696 3.48363 17.9398 2.47759 18.2083 1.37503V1.37503Z" stroke="white" stroke-linecap="round" stroke-linejoin="round"/>
</svg>
